<svg width="42" height="42" xmlns="http://www.w3.org/2000/svg"><path fill-rule="evenodd" clip-rule="evenodd" d="M15.743 3.5C17.059 2.385 18.968 1.75 21 1.75c2.032 0 3.94.635 5.257 1.75H28A3.5 3.5 0 0 1 31.5 7h1.75a3.5 3.5 0 0 1 3.5 3.5v26.25a3.5 3.5 0 0 1-3.5 3.5H8.75a3.5 3.5 0 0 1-3.5-3.5V10.5A3.5 3.5 0 0 1 8.75 7h1.75A3.5 3.5 0 0 1 14 3.5h1.743zM28 12.25a3.499 3.499 0 0 0 3.032-1.75h2.218v26.25H8.75V10.5h2.218A3.499 3.499 0 0 0 14 12.25h14zM14 28v-3.5h10.5V28H14zm0-10.5V21h14v-3.5H14zM17.25 7l.524-.603C18.35 5.734 19.581 5.25 21 5.25s2.65.484 3.226 1.147l.523.603H28v1.75H14V7h3.251z"/></svg>