<svg width="40" height="40" xmlns="http://www.w3.org/2000/svg"><path fill-rule="evenodd" clip-rule="evenodd" d="M20 39.743C9.096 39.743.256 30.904.256 20 .256 9.096 9.096.256 20 .256S39.744 9.096 39.744 20 30.904 39.743 20 39.743zm0-3.59c8.922 0 16.154-7.231 16.154-16.153 0-8.921-7.233-16.154-16.154-16.154S3.846 11.078 3.846 20 11.078 36.154 20 36.154zm-6.654-7.704l2.539-2.539L9.975 20l5.91-5.91-2.539-2.539-8.448 8.45 8.448 8.448zm10.77-14.36l2.538-2.538 8.448 8.45-8.448 8.448-2.538-2.539 5.91-5.91-5.91-5.91zm-7.681 16.385l3.54.59 3.59-21.538-3.54-.59-3.59 21.538z"/></svg>