<svg width="46" height="46" xmlns="http://www.w3.org/2000/svg"><path fill-rule="evenodd" clip-rule="evenodd" d="M21.083 1.917h3.834v3.938c7.995.884 14.344 7.233 15.228 15.228h3.938v3.834h-3.938c-.884 7.995-7.233 14.344-15.228 15.228v3.938h-3.834v-3.938C13.088 39.26 6.74 32.912 5.855 24.917H1.917v-3.834h3.938C6.74 13.088 13.088 6.74 21.083 5.855V1.917zm-11.364 23h3.698v-3.834H9.719A13.425 13.425 0 0 1 21.083 9.72v3.698h3.834V9.719A13.425 13.425 0 0 1 36.28 21.083h-3.698v3.834h3.698A13.425 13.425 0 0 1 24.917 36.28v-3.698h-3.834v3.698A13.425 13.425 0 0 1 9.72 24.917zM19.167 23a3.833 3.833 0 1 0 7.666 0 3.833 3.833 0 0 0-7.666 0z"/></svg>