<svg width="28" height="30" xmlns="http://www.w3.org/2000/svg"><path d="M18.576 14.25c0 .915-.72 1.665-1.632 1.665-.896 0-1.632-.75-1.632-1.665s.72-1.665 1.632-1.665c.912 0 1.632.75 1.632 1.665zm-7.472-1.665c-.912 0-1.632.75-1.632 1.665s.736 1.665 1.632 1.665c.912 0 1.632-.75 1.632-1.665a1.635 1.635 0 0 0-1.632-1.665zM28 3.09V30c-4.03-3.34-2.742-2.234-7.424-6.315l.848 2.775H3.28C1.472 26.46 0 25.08 0 23.37V3.09C0 1.38 1.472 0 3.28 0h21.44C26.528 0 28 1.38 28 3.09zm-4.56 14.22c0-4.83-2.304-8.745-2.304-8.745-2.304-1.62-4.496-1.575-4.496-1.575l-.224.24c2.72.78 3.984 1.905 3.984 1.905-3.8-1.953-8.265-1.953-11.952-.435-.592.255-.944.435-.944.435S8.832 7.95 11.712 7.17l-.16-.18S9.36 6.945 7.056 8.565c0 0-2.304 3.915-2.304 8.745 0 0 1.344 2.175 4.88 2.28 0 0 .592-.675 1.072-1.245-2.032-.57-2.8-1.77-2.8-1.77.235.155.623.355.656.375 2.7 1.418 6.537 1.882 9.984.525a9.4 9.4 0 0 0 1.84-.885s-.8 1.23-2.896 1.785a65.33 65.33 0 0 0 1.056 1.215c3.536-.105 4.896-2.28 4.896-2.28z"/></svg>