<svg width="26" height="26" xmlns="http://www.w3.org/2000/svg"><path d="M21.645 5.6c-2.07-1.666-5.344-1.948-5.484-1.958a.516.516 0 0 0-.514.305c-.063.14-.116.285-.159.432 1.37.232 3.051.697 4.573 1.642a.522.522 0 0 1-.156.948.52.52 0 0 1-.393-.064C16.896 5.28 13.63 5.2 13 5.2c-.63 0-3.898.081-6.512 1.704a.52.52 0 0 1-.549-.884c1.522-.942 3.204-1.41 4.573-1.638-.08-.258-.151-.421-.156-.435a.513.513 0 0 0-.517-.305c-.14.01-3.414.292-5.513 1.98C3.232 6.637 1.04 12.56 1.04 17.68a.52.52 0 0 0 .07.258c1.51 2.657 5.636 3.351 6.576 3.382h.016a.518.518 0 0 0 .421-.213l.95-1.308c-2.565-.662-3.875-1.788-3.95-1.855a.52.52 0 1 1 .689-.78c.03.029 2.443 2.076 7.188 2.076 4.753 0 7.166-2.055 7.19-2.076a.52.52 0 0 1 .687.78c-.075.067-1.385 1.193-3.95 1.855l.95 1.308a.52.52 0 0 0 .42.213h.016c.942-.03 5.067-.725 6.578-3.382a.526.526 0 0 0 .069-.258c0-5.12-2.192-11.044-3.315-12.08zM9.62 15.6c-1.006 0-1.82-.93-1.82-2.08s.814-2.08 1.82-2.08c1.006 0 1.82.93 1.82 2.08s-.814 2.08-1.82 2.08zm6.76 0c-1.006 0-1.82-.93-1.82-2.08s.814-2.08 1.82-2.08c1.006 0 1.82.93 1.82 2.08s-.814 2.08-1.82 2.08z"/></svg>