<svg width="66" height="139" xmlns="http://www.w3.org/2000/svg"><g opacity=".3" fill="#18367B"><circle cx="42.983" cy="135.743" r="2.983" transform="rotate(-90 42.983 135.743)"/><circle cx="42.983" cy="116.777" r="2.983" transform="rotate(-90 42.983 116.777)"/><circle cx="42.983" cy="97.811" r="2.983" transform="rotate(-90 42.983 97.811)"/><circle cx="42.983" cy="78.846" r="2.983" transform="rotate(-90 42.983 78.846)"/><circle cx="42.983" cy="59.88" r="2.983" transform="rotate(-90 42.983 59.88)"/><circle cx="42.983" cy="40.914" r="2.983" transform="rotate(-90 42.983 40.914)"/><circle cx="42.983" cy="21.948" r="2.983" transform="rotate(-90 42.983 21.948)"/><circle cx="42.983" cy="2.983" r="2.983" transform="rotate(-90 42.983 2.983)"/><circle cx="62.983" cy="135.743" r="2.983" transform="rotate(-90 62.983 135.743)"/><circle cx="62.983" cy="116.777" r="2.983" transform="rotate(-90 62.983 116.777)"/><circle cx="62.983" cy="97.811" r="2.983" transform="rotate(-90 62.983 97.811)"/><circle cx="62.983" cy="78.846" r="2.983" transform="rotate(-90 62.983 78.846)"/><circle cx="62.983" cy="59.88" r="2.983" transform="rotate(-90 62.983 59.88)"/><circle cx="62.983" cy="40.914" r="2.983" transform="rotate(-90 62.983 40.914)"/><circle cx="62.983" cy="21.948" r="2.983" transform="rotate(-90 62.983 21.948)"/><circle cx="62.983" cy="2.983" r="2.983" transform="rotate(-90 62.983 2.983)"/><circle cx="2.983" cy="135.743" r="2.983" transform="rotate(-90 2.983 135.743)"/><circle cx="2.983" cy="116.777" r="2.983" transform="rotate(-90 2.983 116.777)"/><circle cx="2.983" cy="97.811" r="2.983" transform="rotate(-90 2.983 97.811)"/><circle cx="2.983" cy="78.846" r="2.983" transform="rotate(-90 2.983 78.846)"/><circle cx="2.983" cy="59.88" r="2.983" transform="rotate(-90 2.983 59.88)"/><circle cx="2.983" cy="40.914" r="2.983" transform="rotate(-90 2.983 40.914)"/><circle cx="2.983" cy="21.948" r="2.983" transform="rotate(-90 2.983 21.948)"/><circle cx="2.983" cy="2.983" r="2.983" transform="rotate(-90 2.983 2.983)"/><circle cx="22.983" cy="135.743" r="2.983" transform="rotate(-90 22.983 135.743)"/><circle cx="22.983" cy="116.777" r="2.983" transform="rotate(-90 22.983 116.777)"/><circle cx="22.983" cy="97.811" r="2.983" transform="rotate(-90 22.983 97.811)"/><circle cx="22.983" cy="78.846" r="2.983" transform="rotate(-90 22.983 78.846)"/><circle cx="22.983" cy="59.88" r="2.983" transform="rotate(-90 22.983 59.88)"/><circle cx="22.983" cy="40.914" r="2.983" transform="rotate(-90 22.983 40.914)"/><circle cx="22.983" cy="21.948" r="2.983" transform="rotate(-90 22.983 21.948)"/><circle cx="22.983" cy="2.983" r="2.983" transform="rotate(-90 22.983 2.983)"/></g></svg>