<svg width="29" height="27" xmlns="http://www.w3.org/2000/svg"><path d="M25.893 0H3.107C1.391 0 0 1.295 0 2.893v21.214C0 25.705 1.391 27 3.107 27h22.786C27.609 27 29 25.705 29 24.107V2.893C29 1.295 27.609 0 25.893 0zM11.53 13.868C5.66 9.9 5.72 9.89 4.143 8.748V7.233c0-.799.695-1.446 1.553-1.446h17.608c.858 0 1.553.647 1.553 1.446V8.75C23.28 9.892 23.34 9.9 17.47 13.868c-.68.461-2.032 1.574-2.97 1.56-.939.014-2.29-1.098-2.97-1.56zm13.327-2.672v8.572c0 .799-.695 1.446-1.553 1.446H5.696c-.858 0-1.553-.647-1.553-1.446v-8.572c.903.65 2.157 1.521 6.169 4.232.917.623 2.458 1.937 4.188 1.93 1.74.007 3.303-1.33 4.19-1.931 4.01-2.71 5.264-3.58 6.167-4.23z"/></svg>