<svg width="56" height="56" xmlns="http://www.w3.org/2000/svg"><path fill-rule="evenodd" clip-rule="evenodd" d="M54.214 17.639a6.777 6.777 0 0 0-6.776-6.777H27.113c.136-.001.093-.053-.205-.416l-.267-.327a93.226 93.226 0 0 1-.65-.833l-.412-.529c-2.426-3.061-4.842-4.672-8.637-4.672H6.777A6.777 6.777 0 0 0 0 10.862v33.884a6.777 6.777 0 0 0 6.777 6.776h40.66a6.777 6.777 0 0 0 6.777-6.776V17.638zm-6.776 0v27.107H6.776V10.862h10.165c1.302 0 2.057.503 3.326 2.104l.297.382c.272.351.647.835.802 1.026 1.703 2.112 3.289 3.251 5.722 3.264h20.349z"/></svg>