<svg width="46" height="46" xmlns="http://www.w3.org/2000/svg"><path fill-rule="evenodd" clip-rule="evenodd" d="M40.648 12.944c2.025 1.124 2.025 3.654 0 4.78l-2.598 1.443 2.598 1.443c2.025 1.125 2.025 3.655 0 4.78l-2.598 1.443 2.598 1.444c2.025 1.125 2.025 3.655 0 4.78L25.217 41.63c-1.29.716-3.145.716-4.434 0L5.352 33.057c-2.025-1.125-2.025-3.655 0-4.78l2.598-1.444-2.598-1.443c-2.025-1.125-2.025-3.655 0-4.78l2.598-1.443-2.598-1.444c-2.025-1.125-2.025-3.655 0-4.78L20.783 4.37c1.29-.716 3.145-.716 4.434 0l15.431 8.573zM25.217 26.296l8.886-4.937L37.057 23l-2.954 1.64-3.946 2.193-6.802 3.779c-.131.073-.579.073-.71 0l-6.802-3.779-3.946-2.192L8.943 23l2.954-1.64 8.886 4.936c1.29.716 3.145.716 4.434 0zm-13.32 2.73l-2.954 1.64 13.702 7.613c.131.073.579.073.71 0l13.702-7.612-2.954-1.641-8.886 4.937c-1.29.716-3.145.716-4.434 0l-8.886-4.937zM22.645 7.721c.131-.073.579-.073.71 0l13.702 7.612-13.702 7.612c-.131.073-.579.073-.71 0L8.943 15.333l13.702-7.612z"/></svg>