<svg width="46" height="46" xmlns="http://www.w3.org/2000/svg"><path fill-rule="evenodd" clip-rule="evenodd" d="M30.667 30.504V34.5a7.667 7.667 0 0 1-15.334 0v-3.996c0-.375-.132-.783-.445-1.32-.202-.346-.465-.725-.862-1.25-.01-.015-.06-.08-.133-.174-.265-.346-.845-1.101-1.058-1.39-2.166-2.925-3.252-5.536-3.252-9.12C9.583 9.84 15.59 3.833 23 3.833S36.417 9.84 36.417 17.25c0 3.662-1.1 6.373-3.248 9.292-.227.31-.802 1.055-1.142 1.497l-.257.335c-.433.577-.703.986-.878 1.342-.159.321-.225.57-.225.788zm-3.75-.912c.098-.53.28-1.05.537-1.572.303-.613.687-1.198 1.252-1.95l.325-.423c.345-.449.857-1.114 1.05-1.376 1.703-2.316 2.502-4.284 2.502-7.021a9.583 9.583 0 0 0-19.166 0c0 2.642.78 4.517 2.498 6.84.185.248.707.928.988 1.295v.001l.181.236c.482.637.823 1.128 1.116 1.632.457.785.76 1.55.892 2.344 1.195.717 2.486 1.069 3.908 1.069 1.426 0 2.72-.354 3.917-1.075zm-.084 4.908v-.647A11.39 11.39 0 0 1 23 34.5a11.39 11.39 0 0 1-3.833-.647v.647a3.833 3.833 0 1 0 7.666 0z"/></svg>