<svg width="28" height="27" xmlns="http://www.w3.org/2000/svg"><path d="M26 0H1.994C.894 0 0 .874 0 1.947v23.106C0 26.126.894 27 1.994 27H26c1.1 0 2-.874 2-1.947V1.947C28 .874 27.1 0 26 0zM8.462 23.143h-4.15V10.258H8.47v12.885h-.006zM6.388 8.498c-1.332 0-2.407-1.043-2.407-2.32 0-1.278 1.075-2.32 2.407-2.32 1.325 0 2.406 1.042 2.406 2.32 0 1.283-1.075 2.32-2.407 2.32zm17.63 14.645h-4.15v-6.268c0-1.495-.03-3.417-2.155-3.417-2.163 0-2.494 1.627-2.494 3.309v6.376h-4.15V10.258h3.981v1.76h.056c.556-1.013 1.913-2.08 3.932-2.08 4.2 0 4.98 2.67 4.98 6.141v7.064z"/></svg>