<svg width="42" height="42" xmlns="http://www.w3.org/2000/svg"><path fill-rule="evenodd" clip-rule="evenodd" d="M32.137 9.863l2.475-2.475A19.19 19.19 0 0 1 40.25 21c0 10.631-8.619 19.25-19.25 19.25-10.632 0-19.25-8.619-19.25-19.25 0-10.042 7.689-18.287 17.5-19.172V1.75h3.5v17.5l1.962-1.962a5.25 5.25 0 1 1-5.462-1.239v-3.624a8.75 8.75 0 1 0 7.937 2.388l2.475-2.475A12.212 12.212 0 0 1 33.25 21c0 6.765-5.485 12.25-12.25 12.25S8.75 27.765 8.75 21c0-6.171 4.563-11.277 10.5-12.126V5.346c-7.875.87-14 7.547-14 15.654 0 8.698 7.052 15.75 15.75 15.75S36.75 29.698 36.75 21a15.7 15.7 0 0 0-4.613-11.137zM22.75 21.006v-.012.012z"/></svg>