<svg width="29" height="27" xmlns="http://www.w3.org/2000/svg"><path d="M25.893 0H3.107C1.392 0 0 1.296 0 2.893v21.214C0 25.704 1.392 27 3.107 27h22.786C27.608 27 29 25.704 29 24.107V2.893C29 1.296 27.608 0 25.893 0zm-3.166 9.57c.013.17.013.344.013.513 0 5.225-4.272 11.246-12.079 11.246-2.408 0-4.64-.651-6.518-1.772a9.59 9.59 0 0 0 1.023.048c1.987 0 3.812-.627 5.269-1.687-1.864-.037-3.431-1.176-3.968-2.743.654.09 1.243.09 1.916-.072-1.942-.367-3.399-1.959-3.399-3.881v-.048a4.483 4.483 0 0 0 1.916.5 4.062 4.062 0 0 1-1.39-1.424 3.73 3.73 0 0 1 .076-3.862c2.091 2.4 5.23 3.966 8.752 4.135-.602-2.682 1.554-4.858 4.143-4.858 1.223 0 2.324.476 3.1 1.248a8.705 8.705 0 0 0 2.694-.953c-.318.917-.984 1.688-1.865 2.176a8.945 8.945 0 0 0 2.447-.615 8.625 8.625 0 0 1-2.13 2.05z"/></svg>