<?xml version="1.0" encoding="utf-8"?><svg viewBox="0 0 66 139" xmlns="http://www.w3.org/2000/svg" xmlns:xlink="http://www.w3.org/1999/xlink"><style>:root>svg{display:none}:root>svg:target{display:block}</style><svg viewBox="0 0 24 24" id="arrow-left" xmlns="http://www.w3.org/2000/svg"><path fill-rule="evenodd" clip-rule="evenodd" d="M6.414 13l6.293 6.293-1.414 1.414L2.586 12l8.707-8.707 1.414 1.414L6.414 11H21v2H6.414z"/></svg><svg viewBox="0 0 24 24" id="arrow-right" xmlns="http://www.w3.org/2000/svg"><path fill-rule="evenodd" clip-rule="evenodd" d="M17.586 11l-6.293-6.293 1.414-1.414L21.414 12l-8.707 8.707-1.414-1.414L17.586 13H3v-2h14.586z"/></svg><svg viewBox="0 0 42 42" id="bar-chart" xmlns="http://www.w3.org/2000/svg"><path fill-rule="evenodd" clip-rule="evenodd" d="M5.25 5.25h31.5a3.5 3.5 0 0 1 3.5 3.5v24.5a3.5 3.5 0 0 1-3.5 3.5H5.25a3.5 3.5 0 0 1-3.5-3.5V8.75a3.5 3.5 0 0 1 3.5-3.5zm0 3.5v24.5h31.5V8.75H5.25zm7 21h3.5v-10.5h-3.5v10.5zm10.5 0h-3.5v-17.5h3.5v17.5zm3.5 0h3.5V17.5h-3.5v12.25z"/></svg><svg viewBox="0 0 17 18" id="caret-right" xmlns="http://www.w3.org/2000/svg"><path d="M15.87 8.485L9.092 1.707c-.63-.63-1.707-.184-1.707.707v13.557c0 .89 1.077 1.337 1.707.707l6.778-6.779a1 1 0 0 0 0-1.414z" fill="#3C77FE"/></svg><svg viewBox="0 0 36 36" id="chevron-top" xmlns="http://www.w3.org/2000/svg"><path fill-rule="evenodd" clip-rule="evenodd" d="M18 14.121L7.06 25.061l-2.12-2.122L18 9.88l13.06 13.06-2.12 2.122L18 14.12z"/></svg><svg viewBox="0 0 42 42" id="clipboard-text" xmlns="http://www.w3.org/2000/svg"><path fill-rule="evenodd" clip-rule="evenodd" d="M15.743 3.5C17.059 2.385 18.968 1.75 21 1.75c2.032 0 3.94.635 5.257 1.75H28A3.5 3.5 0 0 1 31.5 7h1.75a3.5 3.5 0 0 1 3.5 3.5v26.25a3.5 3.5 0 0 1-3.5 3.5H8.75a3.5 3.5 0 0 1-3.5-3.5V10.5A3.5 3.5 0 0 1 8.75 7h1.75A3.5 3.5 0 0 1 14 3.5h1.743zM28 12.25a3.499 3.499 0 0 0 3.032-1.75h2.218v26.25H8.75V10.5h2.218A3.499 3.499 0 0 0 14 12.25h14zM14 28v-3.5h10.5V28H14zm0-10.5V21h14v-3.5H14zM17.25 7l.524-.603C18.35 5.734 19.581 5.25 21 5.25s2.65.484 3.226 1.147l.523.603H28v1.75H14V7h3.251z"/></svg><svg viewBox="0 0 40 40" id="code" xmlns="http://www.w3.org/2000/svg"><path fill-rule="evenodd" clip-rule="evenodd" d="M20 39.743C9.096 39.743.256 30.904.256 20 .256 9.096 9.096.256 20 .256S39.744 9.096 39.744 20 30.904 39.743 20 39.743zm0-3.59c8.922 0 16.154-7.231 16.154-16.153 0-8.921-7.233-16.154-16.154-16.154S3.846 11.078 3.846 20 11.078 36.154 20 36.154zm-6.654-7.704l2.539-2.539L9.975 20l5.91-5.91-2.539-2.539-8.448 8.45 8.448 8.448zm10.77-14.36l2.538-2.538 8.448 8.45-8.448 8.448-2.538-2.539 5.91-5.91-5.91-5.91zm-7.681 16.385l3.54.59 3.59-21.538-3.54-.59-3.59 21.538z"/></svg><svg viewBox="0 0 46 46" id="crosshairs" xmlns="http://www.w3.org/2000/svg"><path fill-rule="evenodd" clip-rule="evenodd" d="M21.083 1.917h3.834v3.938c7.995.884 14.344 7.233 15.228 15.228h3.938v3.834h-3.938c-.884 7.995-7.233 14.344-15.228 15.228v3.938h-3.834v-3.938C13.088 39.26 6.74 32.912 5.855 24.917H1.917v-3.834h3.938C6.74 13.088 13.088 6.74 21.083 5.855V1.917zm-11.364 23h3.698v-3.834H9.719A13.425 13.425 0 0 1 21.083 9.72v3.698h3.834V9.719A13.425 13.425 0 0 1 36.28 21.083h-3.698v3.834h3.698A13.425 13.425 0 0 1 24.917 36.28v-3.698h-3.834v3.698A13.425 13.425 0 0 1 9.72 24.917zM19.167 23a3.833 3.833 0 1 0 7.666 0 3.833 3.833 0 0 0-7.666 0z"/></svg><svg viewBox="0 0 26 26" id="discord" xmlns="http://www.w3.org/2000/svg"><path d="M21.645 5.6c-2.07-1.666-5.344-1.948-5.484-1.958a.516.516 0 0 0-.514.305c-.063.14-.116.285-.159.432 1.37.232 3.051.697 4.573 1.642a.522.522 0 0 1-.156.948.52.52 0 0 1-.393-.064C16.896 5.28 13.63 5.2 13 5.2c-.63 0-3.898.081-6.512 1.704a.52.52 0 0 1-.549-.884c1.522-.942 3.204-1.41 4.573-1.638-.08-.258-.151-.421-.156-.435a.513.513 0 0 0-.517-.305c-.14.01-3.414.292-5.513 1.98C3.232 6.637 1.04 12.56 1.04 17.68a.52.52 0 0 0 .07.258c1.51 2.657 5.636 3.351 6.576 3.382h.016a.518.518 0 0 0 .421-.213l.95-1.308c-2.565-.662-3.875-1.788-3.95-1.855a.52.52 0 1 1 .689-.78c.03.029 2.443 2.076 7.188 2.076 4.753 0 7.166-2.055 7.19-2.076a.52.52 0 0 1 .687.78c-.075.067-1.385 1.193-3.95 1.855l.95 1.308a.52.52 0 0 0 .42.213h.016c.942-.03 5.067-.725 6.578-3.382a.526.526 0 0 0 .069-.258c0-5.12-2.192-11.044-3.315-12.08zM9.62 15.6c-1.006 0-1.82-.93-1.82-2.08s.814-2.08 1.82-2.08c1.006 0 1.82.93 1.82 2.08s-.814 2.08-1.82 2.08zm6.76 0c-1.006 0-1.82-.93-1.82-2.08s.814-2.08 1.82-2.08c1.006 0 1.82.93 1.82 2.08s-.814 2.08-1.82 2.08z"/></svg><svg viewBox="0 0 28 30" id="discord-filled" xmlns="http://www.w3.org/2000/svg"><path d="M18.576 14.25c0 .915-.72 1.665-1.632 1.665-.896 0-1.632-.75-1.632-1.665s.72-1.665 1.632-1.665c.912 0 1.632.75 1.632 1.665zm-7.472-1.665c-.912 0-1.632.75-1.632 1.665s.736 1.665 1.632 1.665c.912 0 1.632-.75 1.632-1.665a1.635 1.635 0 0 0-1.632-1.665zM28 3.09V30c-4.03-3.34-2.742-2.234-7.424-6.315l.848 2.775H3.28C1.472 26.46 0 25.08 0 23.37V3.09C0 1.38 1.472 0 3.28 0h21.44C26.528 0 28 1.38 28 3.09zm-4.56 14.22c0-4.83-2.304-8.745-2.304-8.745-2.304-1.62-4.496-1.575-4.496-1.575l-.224.24c2.72.78 3.984 1.905 3.984 1.905-3.8-1.953-8.265-1.953-11.952-.435-.592.255-.944.435-.944.435S8.832 7.95 11.712 7.17l-.16-.18S9.36 6.945 7.056 8.565c0 0-2.304 3.915-2.304 8.745 0 0 1.344 2.175 4.88 2.28 0 0 .592-.675 1.072-1.245-2.032-.57-2.8-1.77-2.8-1.77.235.155.623.355.656.375 2.7 1.418 6.537 1.882 9.984.525a9.4 9.4 0 0 0 1.84-.885s-.8 1.23-2.896 1.785a65.33 65.33 0 0 0 1.056 1.215c3.536-.105 4.896-2.28 4.896-2.28z"/></svg><svg viewBox="0 0 66 139" id="dots" xmlns="http://www.w3.org/2000/svg"><g opacity=".3" fill="#18367B"><circle cx="42.983" cy="135.743" r="2.983" transform="rotate(-90 42.983 135.743)"/><circle cx="42.983" cy="116.777" r="2.983" transform="rotate(-90 42.983 116.777)"/><circle cx="42.983" cy="97.811" r="2.983" transform="rotate(-90 42.983 97.811)"/><circle cx="42.983" cy="78.846" r="2.983" transform="rotate(-90 42.983 78.846)"/><circle cx="42.983" cy="59.88" r="2.983" transform="rotate(-90 42.983 59.88)"/><circle cx="42.983" cy="40.914" r="2.983" transform="rotate(-90 42.983 40.914)"/><circle cx="42.983" cy="21.948" r="2.983" transform="rotate(-90 42.983 21.948)"/><circle cx="42.983" cy="2.983" r="2.983" transform="rotate(-90 42.983 2.983)"/><circle cx="62.983" cy="135.743" r="2.983" transform="rotate(-90 62.983 135.743)"/><circle cx="62.983" cy="116.777" r="2.983" transform="rotate(-90 62.983 116.777)"/><circle cx="62.983" cy="97.811" r="2.983" transform="rotate(-90 62.983 97.811)"/><circle cx="62.983" cy="78.846" r="2.983" transform="rotate(-90 62.983 78.846)"/><circle cx="62.983" cy="59.88" r="2.983" transform="rotate(-90 62.983 59.88)"/><circle cx="62.983" cy="40.914" r="2.983" transform="rotate(-90 62.983 40.914)"/><circle cx="62.983" cy="21.948" r="2.983" transform="rotate(-90 62.983 21.948)"/><circle cx="62.983" cy="2.983" r="2.983" transform="rotate(-90 62.983 2.983)"/><circle cx="2.983" cy="135.743" r="2.983" transform="rotate(-90 2.983 135.743)"/><circle cx="2.983" cy="116.777" r="2.983" transform="rotate(-90 2.983 116.777)"/><circle cx="2.983" cy="97.811" r="2.983" transform="rotate(-90 2.983 97.811)"/><circle cx="2.983" cy="78.846" r="2.983" transform="rotate(-90 2.983 78.846)"/><circle cx="2.983" cy="59.88" r="2.983" transform="rotate(-90 2.983 59.88)"/><circle cx="2.983" cy="40.914" r="2.983" transform="rotate(-90 2.983 40.914)"/><circle cx="2.983" cy="21.948" r="2.983" transform="rotate(-90 2.983 21.948)"/><circle cx="2.983" cy="2.983" r="2.983" transform="rotate(-90 2.983 2.983)"/><circle cx="22.983" cy="135.743" r="2.983" transform="rotate(-90 22.983 135.743)"/><circle cx="22.983" cy="116.777" r="2.983" transform="rotate(-90 22.983 116.777)"/><circle cx="22.983" cy="97.811" r="2.983" transform="rotate(-90 22.983 97.811)"/><circle cx="22.983" cy="78.846" r="2.983" transform="rotate(-90 22.983 78.846)"/><circle cx="22.983" cy="59.88" r="2.983" transform="rotate(-90 22.983 59.88)"/><circle cx="22.983" cy="40.914" r="2.983" transform="rotate(-90 22.983 40.914)"/><circle cx="22.983" cy="21.948" r="2.983" transform="rotate(-90 22.983 21.948)"/><circle cx="22.983" cy="2.983" r="2.983" transform="rotate(-90 22.983 2.983)"/></g></svg><svg viewBox="0 0 29 27" id="email" xmlns="http://www.w3.org/2000/svg"><path d="M25.893 0H3.107C1.391 0 0 1.295 0 2.893v21.214C0 25.705 1.391 27 3.107 27h22.786C27.609 27 29 25.705 29 24.107V2.893C29 1.295 27.609 0 25.893 0zM11.53 13.868C5.66 9.9 5.72 9.89 4.143 8.748V7.233c0-.799.695-1.446 1.553-1.446h17.608c.858 0 1.553.647 1.553 1.446V8.75C23.28 9.892 23.34 9.9 17.47 13.868c-.68.461-2.032 1.574-2.97 1.56-.939.014-2.29-1.098-2.97-1.56zm13.327-2.672v8.572c0 .799-.695 1.446-1.553 1.446H5.696c-.858 0-1.553-.647-1.553-1.446v-8.572c.903.65 2.157 1.521 6.169 4.232.917.623 2.458 1.937 4.188 1.93 1.74.007 3.303-1.33 4.19-1.931 4.01-2.71 5.264-3.58 6.167-4.23z"/></svg><svg viewBox="0 0 42 42" id="flag" xmlns="http://www.w3.org/2000/svg"><path fill-rule="evenodd" clip-rule="evenodd" d="M11.98 36.402v-11.98h24.173L31.02 14.156l5.132-10.268H11.979V2.176H8.557v34.226H6.845v3.422h6.846v-3.422h-1.712zm0-15.402V7.31h18.634l-3.421 6.845L30.615 21H11.98z"/></svg><svg viewBox="0 0 56 56" id="folder" xmlns="http://www.w3.org/2000/svg"><path fill-rule="evenodd" clip-rule="evenodd" d="M54.214 17.639a6.777 6.777 0 0 0-6.776-6.777H27.113c.136-.001.093-.053-.205-.416l-.267-.327a93.226 93.226 0 0 1-.65-.833l-.412-.529c-2.426-3.061-4.842-4.672-8.637-4.672H6.777A6.777 6.777 0 0 0 0 10.862v33.884a6.777 6.777 0 0 0 6.777 6.776h40.66a6.777 6.777 0 0 0 6.777-6.776V17.638zm-6.776 0v27.107H6.776V10.862h10.165c1.302 0 2.057.503 3.326 2.104l.297.382c.272.351.647.835.802 1.026 1.703 2.112 3.289 3.251 5.722 3.264h20.349z"/></svg><svg viewBox="0 0 46 46" id="layers" xmlns="http://www.w3.org/2000/svg"><path fill-rule="evenodd" clip-rule="evenodd" d="M40.648 12.944c2.025 1.124 2.025 3.654 0 4.78l-2.598 1.443 2.598 1.443c2.025 1.125 2.025 3.655 0 4.78l-2.598 1.443 2.598 1.444c2.025 1.125 2.025 3.655 0 4.78L25.217 41.63c-1.29.716-3.145.716-4.434 0L5.352 33.057c-2.025-1.125-2.025-3.655 0-4.78l2.598-1.444-2.598-1.443c-2.025-1.125-2.025-3.655 0-4.78l2.598-1.443-2.598-1.444c-2.025-1.125-2.025-3.655 0-4.78L20.783 4.37c1.29-.716 3.145-.716 4.434 0l15.431 8.573zM25.217 26.296l8.886-4.937L37.057 23l-2.954 1.64-3.946 2.193-6.802 3.779c-.131.073-.579.073-.71 0l-6.802-3.779-3.946-2.192L8.943 23l2.954-1.64 8.886 4.936c1.29.716 3.145.716 4.434 0zm-13.32 2.73l-2.954 1.64 13.702 7.613c.131.073.579.073.71 0l13.702-7.612-2.954-1.641-8.886 4.937c-1.29.716-3.145.716-4.434 0l-8.886-4.937zM22.645 7.721c.131-.073.579-.073.71 0l13.702 7.612-13.702 7.612c-.131.073-.579.073-.71 0L8.943 15.333l13.702-7.612z"/></svg><svg viewBox="0 0 46 46" id="lightbulb" xmlns="http://www.w3.org/2000/svg"><path fill-rule="evenodd" clip-rule="evenodd" d="M30.667 30.504V34.5a7.667 7.667 0 0 1-15.334 0v-3.996c0-.375-.132-.783-.445-1.32-.202-.346-.465-.725-.862-1.25-.01-.015-.06-.08-.133-.174-.265-.346-.845-1.101-1.058-1.39-2.166-2.925-3.252-5.536-3.252-9.12C9.583 9.84 15.59 3.833 23 3.833S36.417 9.84 36.417 17.25c0 3.662-1.1 6.373-3.248 9.292-.227.31-.802 1.055-1.142 1.497l-.257.335c-.433.577-.703.986-.878 1.342-.159.321-.225.57-.225.788zm-3.75-.912c.098-.53.28-1.05.537-1.572.303-.613.687-1.198 1.252-1.95l.325-.423c.345-.449.857-1.114 1.05-1.376 1.703-2.316 2.502-4.284 2.502-7.021a9.583 9.583 0 0 0-19.166 0c0 2.642.78 4.517 2.498 6.84.185.248.707.928.988 1.295v.001l.181.236c.482.637.823 1.128 1.116 1.632.457.785.76 1.55.892 2.344 1.195.717 2.486 1.069 3.908 1.069 1.426 0 2.72-.354 3.917-1.075zm-.084 4.908v-.647A11.39 11.39 0 0 1 23 34.5a11.39 11.39 0 0 1-3.833-.647v.647a3.833 3.833 0 1 0 7.666 0z"/></svg><svg viewBox="0 0 28 27" id="linkedin" xmlns="http://www.w3.org/2000/svg"><path d="M26 0H1.994C.894 0 0 .874 0 1.947v23.106C0 26.126.894 27 1.994 27H26c1.1 0 2-.874 2-1.947V1.947C28 .874 27.1 0 26 0zM8.462 23.143h-4.15V10.258H8.47v12.885h-.006zM6.388 8.498c-1.332 0-2.407-1.043-2.407-2.32 0-1.278 1.075-2.32 2.407-2.32 1.325 0 2.406 1.042 2.406 2.32 0 1.283-1.075 2.32-2.407 2.32zm17.63 14.645h-4.15v-6.268c0-1.495-.03-3.417-2.155-3.417-2.163 0-2.494 1.627-2.494 3.309v6.376h-4.15V10.258h3.981v1.76h.056c.556-1.013 1.913-2.08 3.932-2.08 4.2 0 4.98 2.67 4.98 6.141v7.064z"/></svg><svg viewBox="0 0 24 24" id="mail" xmlns="http://www.w3.org/2000/svg"><path fill-rule="evenodd" clip-rule="evenodd" d="M3 3h18a2 2 0 0 1 2 2v14a2 2 0 0 1-2 2H3a2 2 0 0 1-2-2V5a2 2 0 0 1 2-2zm0 6.618V19h18V9.619l-9 4.5-9-4.5zm0-2.236l9 4.5 9-4.5V5H3v2.382z"/></svg><svg viewBox="0 0 27 27" id="medium" xmlns="http://www.w3.org/2000/svg"><path d="M0 0v27h27V0H0zm22.432 6.394l-1.447 1.387a.425.425 0 0 0-.162.403v10.204a.415.415 0 0 0 .162.403l1.417 1.387v.307H15.29v-.295l1.465-1.423c.144-.144.144-.186.144-.403v-8.251l-4.074 10.342h-.548L7.533 10.113v6.93c-.042.29.06.585.266.796l1.904 2.309v.307H4.291v-.307l1.905-2.309a.923.923 0 0 0 .247-.795V9.028a.688.688 0 0 0-.23-.59L4.52 6.393v-.307h5.261l4.063 8.92 3.573-8.914h5.015v.301z"/></svg><svg viewBox="0 0 23 16" id="menu" xmlns="http://www.w3.org/2000/svg"><path fill-rule="evenodd" clip-rule="evenodd" d="M22.167 2.639v-2.2h-22v2.2h22zm0 4.4v2.2h-22v-2.2h22zm0 6.6v2.2h-22v-2.2h22z"/></svg><svg stroke="#3C77FE" viewBox="0 0 38 38" id="oval" xmlns="http://www.w3.org/2000/svg"><g transform="translate(1 1)" stroke-width="2" fill="none" fill-rule="evenodd"><circle stroke-opacity=".5" cx="18" cy="18" r="18"/><path d="M36 18c0-9.94-8.06-18-18-18"><animateTransform attributeName="transform" type="rotate" from="0 18 18" to="360 18 18" dur="1s" repeatCount="indefinite"/></path></g></svg><svg viewBox="0 0 34 34" id="plus" xmlns="http://www.w3.org/2000/svg"><path fill-rule="evenodd" clip-rule="evenodd" d="M15.556 16.97l-6.364-6.364 1.415-1.414 6.364 6.364 6.363-6.364 1.415 1.414-6.364 6.364 6.364 6.364-1.415 1.414-6.363-6.364-6.364 6.364-1.415-1.414 6.364-6.364z"/></svg><svg viewBox="0 0 46 44" id="presentation" xmlns="http://www.w3.org/2000/svg"><path fill-rule="evenodd" clip-rule="evenodd" d="M39.73 7.308v18.269c0 2.018-1.664 3.654-3.717 3.654H24.859v2.62l8.392 4.948-1.912 3.133-6.48-3.82v4.08h-3.718v-4.08l-6.48 3.82-1.912-3.133 8.392-4.949v-2.62H9.987c-2.053 0-3.718-1.635-3.718-3.653V7.307H4.41V3.655h37.18v3.654h-1.86zm-29.743 0v18.269h26.026V7.307H9.987zm5.577 14.615h3.718v-7.308h-3.718v7.308zm9.295 0h-3.718V10.962h3.718v10.961zm1.859 0h3.718v-5.48h-3.718v5.48z"/></svg><svg viewBox="0 0 45 45" id="pulse" xmlns="http://www.w3.org/2000/svg"><path fill-rule="evenodd" clip-rule="evenodd" d="M7.437 4.115h29.895c1.835 0 3.322 1.818 3.322 4.06v28.419c0 2.242-1.487 4.06-3.322 4.06H7.437c-1.834 0-3.322-1.818-3.322-4.06V8.175c0-2.242 1.488-4.06 3.322-4.06zM37 20.558V7.769H7.77v12.789h6.237l4.107 4.108 5.663-13.213 6.829 9.105H37zM7.77 24.212h4.723l6.854 6.853 5.299-12.364 4.133 5.51H37v12.79H7.77V24.21z"/></svg><svg viewBox="0 0 24 24" id="question-circle" xmlns="http://www.w3.org/2000/svg"><path fill-rule="evenodd" clip-rule="evenodd" d="M1 12c0 6.075 4.925 11 11 11s11-4.925 11-11S18.075 1 12 1 1 5.925 1 12zm20 0a9 9 0 1 1-18 0 9 9 0 0 1 18 0zm-9 4.998a1 1 0 1 0 0-2 1 1 0 0 0 0 2zM11 14h2c0-.798.125-.945.947-1.356C15.375 11.93 16 11.202 16 9.5 16 7.32 14.284 6 12 6a4 4 0 0 0-4 4h2a2 2 0 0 1 2-2c1.277 0 2 .556 2 1.5 0 .798-.125.945-.947 1.356C11.625 11.57 11 12.298 11 14z"/></svg><svg viewBox="0 0 42 42" id="radar" xmlns="http://www.w3.org/2000/svg"><path fill-rule="evenodd" clip-rule="evenodd" d="M32.137 9.863l2.475-2.475A19.19 19.19 0 0 1 40.25 21c0 10.631-8.619 19.25-19.25 19.25-10.632 0-19.25-8.619-19.25-19.25 0-10.042 7.689-18.287 17.5-19.172V1.75h3.5v17.5l1.962-1.962a5.25 5.25 0 1 1-5.462-1.239v-3.624a8.75 8.75 0 1 0 7.937 2.388l2.475-2.475A12.212 12.212 0 0 1 33.25 21c0 6.765-5.485 12.25-12.25 12.25S8.75 27.765 8.75 21c0-6.171 4.563-11.277 10.5-12.126V5.346c-7.875.87-14 7.547-14 15.654 0 8.698 7.052 15.75 15.75 15.75S36.75 29.698 36.75 21a15.7 15.7 0 0 0-4.613-11.137zM22.75 21.006v-.012.012z"/></svg><svg viewBox="0 0 24 24" id="send" xmlns="http://www.w3.org/2000/svg"><path fill-rule="evenodd" clip-rule="evenodd" d="M2.74 2.252l1.365 9.555.772.193-.772.193-1.365 9.555L22.236 12 2.74 2.252zm3.155 7.941L5.26 5.748 17.764 12 5.26 18.252l.635-4.445L13.123 12l-7.228-1.807z"/></svg><svg viewBox="0 0 36 36" id="smiled" xmlns="http://www.w3.org/2000/svg"><path fill-rule="evenodd" clip-rule="evenodd" d="M18 34.5C8.887 34.5 1.5 27.113 1.5 18S8.887 1.5 18 1.5 34.5 8.887 34.5 18 27.113 34.5 18 34.5zm0-3c7.456 0 13.5-6.044 13.5-13.5S25.456 4.5 18 4.5 4.5 10.544 4.5 18 10.544 31.5 18 31.5zm7.366-8.327l-2.454-1.726A5.99 5.99 0 0 1 18 24a5.99 5.99 0 0 1-4.912-2.553l-2.454 1.726A8.99 8.99 0 0 0 18 27a8.99 8.99 0 0 0 7.366-3.827zM21 16.5v-3h3v3h-3zm-9-3v3h3v-3h-3z"/></svg><svg viewBox="0 0 29 27" id="twitter" xmlns="http://www.w3.org/2000/svg"><path d="M25.893 0H3.107C1.392 0 0 1.296 0 2.893v21.214C0 25.704 1.392 27 3.107 27h22.786C27.608 27 29 25.704 29 24.107V2.893C29 1.296 27.608 0 25.893 0zm-3.166 9.57c.013.17.013.344.013.513 0 5.225-4.272 11.246-12.079 11.246a12.68 12.68 0 0 1-6.518-1.772 9.59 9.59 0 0 0 1.023.048c1.987 0 3.812-.627 5.269-1.687-1.864-.037-3.431-1.176-3.968-2.743.654.09 1.243.09 1.916-.072-1.942-.367-3.399-1.959-3.399-3.881v-.048a4.483 4.483 0 0 0 1.916.5 4.062 4.062 0 0 1-1.39-1.424 3.73 3.73 0 0 1 .076-3.862c2.091 2.4 5.23 3.966 8.752 4.135-.602-2.682 1.554-4.858 4.143-4.858 1.223 0 2.324.476 3.1 1.248a8.705 8.705 0 0 0 2.694-.953c-.318.917-.984 1.688-1.865 2.176a8.945 8.945 0 0 0 2.447-.615 8.625 8.625 0 0 1-2.13 2.05z"/></svg><svg viewBox="0 0 44 44" id="video" xmlns="http://www.w3.org/2000/svg"><path fill-rule="evenodd" clip-rule="evenodd" d="M5.5 9.167h22a3.667 3.667 0 0 1 3.667 3.666v2.534l11-5.5v24.266l-11-5.5v2.534a3.667 3.667 0 0 1-3.667 3.666h-22a3.667 3.667 0 0 1-3.667-3.666V12.833A3.667 3.667 0 0 1 5.5 9.167zm25.667 15.367L38.5 28.2V15.8l-7.333 3.666v5.068zM5.5 12.834v18.333h22V12.833h-22z"/></svg></svg>